<svg width="42" height="30" viewBox="0 0 42 30" fill="none" xmlns="http://www.w3.org/2000/svg">
<rect x="0.5" y="0.5" width="41" height="29" rx="14.5" stroke="white"/>
<path d="M13.924 20.216C13.4067 20.216 12.9533 20.136 12.564 19.976C12.18 19.816 11.852 19.6 11.58 19.328C11.3133 19.056 11.0973 18.7467 10.932 18.4C10.7667 18.048 10.6467 17.6773 10.572 17.288C10.4973 16.8933 10.46 16.5013 10.46 16.112V11.36H11.644V15.768C11.644 16.2427 11.6893 16.6827 11.78 17.088C11.8707 17.4933 12.0147 17.848 12.212 18.152C12.4147 18.4507 12.6733 18.6827 12.988 18.848C13.308 19.0133 13.6947 19.096 14.148 19.096C14.564 19.096 14.9293 19.024 15.244 18.88C15.564 18.736 15.8307 18.5307 16.044 18.264C16.2627 17.992 16.428 17.664 16.54 17.28C16.652 16.8907 16.708 16.4533 16.708 15.968L17.54 16.152C17.54 17.0373 17.3853 17.7813 17.076 18.384C16.7667 18.9867 16.34 19.4427 15.796 19.752C15.252 20.0613 14.628 20.216 13.924 20.216ZM16.828 20V17.872H16.708V11.36H17.884V20H16.828ZM19.936 20L19.944 8.48H21.128V15.52L24.984 11.36H26.552L22.504 15.68L27.08 20H25.368L21.128 15.84V20H19.936ZM27.7055 20V11.36H28.7615V13.44L28.5535 13.168C28.6495 12.912 28.7748 12.6773 28.9295 12.464C29.0842 12.2453 29.2522 12.0667 29.4335 11.928C29.6575 11.7307 29.9188 11.5813 30.2175 11.48C30.5162 11.3733 30.8175 11.312 31.1215 11.296C31.4255 11.2747 31.7028 11.296 31.9535 11.36V12.464C31.6388 12.384 31.2948 12.3653 30.9215 12.408C30.5482 12.4507 30.2042 12.6 29.8895 12.856C29.6015 13.08 29.3855 13.3493 29.2415 13.664C29.0975 13.9733 29.0015 14.304 28.9535 14.656C28.9055 15.0027 28.8815 15.3467 28.8815 15.688V20H27.7055Z" fill="white"/>
</svg>
