<svg width="196" height="60" viewBox="0 0 196 60" fill="none" xmlns="http://www.w3.org/2000/svg">
<path d="M152.493 40.114H147.246L134.888 22.328L134.739 40.114H129.531V13.975H134.739L147.246 31.616V13.975H152.493V40.114ZM113.306 13.9638H125.713V19.1923H113V23.8457L123.59 23.8902V29.1187L113 29.0706V34.8743H125.713V40.1028H116.658L196 56V0L113.306 13.9638Z" fill="white"/>
<path d="M24 26.7465V39.4792H20.5749L20.0972 37.1785C17.9584 39.0435 15.1831 40 12.1625 40C5.50327 40 0 35.3603 0 26.5002C0 17.8354 5.50327 13 12.1625 13C18.0304 13 22.6171 16.5563 23.9318 22.7329H18.2561C17.242 19.775 14.9526 18.3771 12.1625 18.3771C8.3891 18.3771 5.50359 20.9726 5.50359 26.5005C5.50359 32.0771 8.36889 34.6245 12.1625 34.6245C14.7963 34.6245 17.0478 33.3674 18.1561 30.5769H13.5751V26.7465H24Z" fill="white"/>
<path d="M45 34.8V40H27V14H32.6279V34.8H45Z" fill="white"/>
<path d="M64.5699 26.5002C64.5699 20.9415 61.7354 18.3764 58 18.3764C54.2767 18.3764 51.4298 20.9716 51.4298 26.5002C51.4298 32.0765 54.2571 34.6242 58 34.6242C61.7666 34.6242 64.5699 32.0772 64.5699 26.5002ZM70 26.5002C70 35.4041 64.5693 40 58 40C51.4298 40 46 35.3603 46 26.5002C46 17.835 51.4298 13 58 13C64.8842 13 70 18.0133 70 26.5002Z" fill="white"/>
<path d="M106 14L98.1535 39.9866H92.1072L87.5014 23.5247L82.8872 39.9984L76.8412 40L69 14.0115H74.3471L79.8502 32.7864L84.828 14.0115H90.172L95.1162 32.7629L100.653 14H106Z" fill="white"/>
<g clip-path="url(#clip0_3558_11345)">
<mask id="mask0_3558_11345" style="mask-type:luminance" maskUnits="userSpaceOnUse" x="6" y="51" width="65" height="9">
<path d="M71 51H6V60H71V51Z" fill="white"/>
</mask>
<g mask="url(#mask0_3558_11345)">
<path d="M6 51H6.86721V59.0229H10V60H6V51Z" fill="white"/>
<path d="M12 51H13V60H12V51Z" fill="white"/>
<path d="M17.1615 59.6862C16.7096 59.4771 16.3232 59.1798 16.0026 58.795C15.6818 58.4101 15.4347 57.9497 15.2609 57.4142C15.087 56.8787 15 56.2802 15 55.619V55.3807C15 54.728 15.091 54.1317 15.2725 53.5922C15.4537 53.0522 15.705 52.5923 16.0258 52.2114C16.3461 51.8306 16.7308 51.5336 17.1788 51.3202C17.6268 51.1066 18.1175 51 18.6507 51H18.7666C19.0679 51 19.3635 51.0441 19.653 51.1319C19.9428 51.2195 20.2152 51.3453 20.4702 51.5082C20.7252 51.6714 20.9587 51.8682 21.1715 52.0982C21.3838 52.3284 21.5635 52.5901 21.7103 52.8826L20.899 53.4226C20.6825 52.9704 20.3967 52.6171 20.0414 52.3618C19.6858 52.1067 19.2533 51.9791 18.7434 51.9791H18.6507C18.2487 51.9791 17.8838 52.0605 17.5556 52.224C17.2271 52.3869 16.945 52.615 16.7096 52.9079C16.4738 53.2009 16.2923 53.5567 16.1649 53.9749C16.0371 54.3934 15.9738 54.8621 15.9738 55.3807V55.6315C15.9738 56.1422 16.0391 56.6069 16.1705 57.0251C16.302 57.4436 16.4854 57.7993 16.7211 58.092C16.9566 58.385 17.2427 58.6128 17.5785 58.7763C17.9149 58.9392 18.2874 59.0209 18.6973 59.0209H18.7781C19.1182 59.0209 19.4289 58.9624 19.7112 58.8452C19.9931 58.7279 20.2364 58.5626 20.4413 58.3492C20.646 58.1359 20.8043 57.8808 20.9165 57.5835C21.0285 57.2868 21.0844 56.9581 21.0844 56.5981V56.3598H18.9638V55.4059H22V59.8996H21.293C21.2543 59.7823 21.2176 59.6296 21.1831 59.4413C21.1483 59.253 21.1229 59.0711 21.1076 58.8954C20.9762 59.0628 20.8238 59.2135 20.6497 59.347C20.4759 59.4811 20.2848 59.5962 20.0762 59.6923C19.8678 59.7887 19.6493 59.8641 19.4215 59.9183C19.1934 59.9725 18.9638 60 18.7318 60H18.6738C18.1175 60 17.6135 59.8953 17.1615 59.6862Z" fill="white"/>
<path d="M24 51H24.9756V54.8957H29.0244V51H30V60H29.0244V55.8729H24.9756V60H24V51Z" fill="white"/>
<path d="M33.4805 51.9771H31V51H37V51.9771H34.5195V60H33.4805V51.9771Z" fill="white"/>
<path d="M43.2346 59.9125C42.9464 59.8543 42.6688 59.771 42.4014 59.6628C42.134 59.5543 41.8807 59.421 41.6422 59.2628C41.4032 59.1045 41.1894 58.9295 41 58.7375L41.6299 57.9753C41.7859 58.15 41.959 58.3021 42.1481 58.4314C42.3375 58.5606 42.5411 58.6689 42.7591 58.7564C42.9774 58.8436 43.2017 58.9106 43.4321 58.9564C43.6625 59.0021 43.8931 59.025 44.1237 59.025C44.42 59.025 44.6811 58.9939 44.9075 58.9314C45.1337 58.8689 45.3252 58.7793 45.4817 58.6628C45.6378 58.546 45.7573 58.3981 45.8395 58.2189C45.9217 58.0396 45.9632 57.8335 45.9632 57.6003C45.9632 57.2585 45.8805 56.9856 45.7161 56.7814C45.5514 56.5771 45.3354 56.4061 45.0678 56.2689C44.8004 56.1314 44.4999 56.0149 44.1668 55.9186C43.8332 55.8231 43.498 55.721 43.1608 55.6125C42.897 55.521 42.6483 55.417 42.4137 55.3C42.1789 55.1835 41.9753 55.0375 41.8025 54.8628C41.6299 54.6875 41.4917 54.4771 41.389 54.2314C41.2861 53.9856 41.2348 53.6918 41.2348 53.35C41.2348 53.0003 41.2984 52.6814 41.4261 52.3936C41.5537 52.1061 41.7347 51.8585 41.9693 51.6503C42.2038 51.4418 42.4878 51.2814 42.8211 51.1689C43.1542 51.0564 43.5309 51 43.9509 51C44.4691 51 44.9711 51.096 45.4568 51.2875C45.9425 51.4795 46.3459 51.7418 46.6667 52.075L46.062 52.85C45.7983 52.5585 45.4691 52.3418 45.0741 52.2C44.679 52.0585 44.2921 51.9875 43.9136 51.9875C43.6501 51.9875 43.4156 52.0189 43.2099 52.0814C43.0042 52.1439 42.8293 52.2314 42.6853 52.3439C42.5411 52.4564 42.4321 52.592 42.358 52.75C42.284 52.9085 42.2469 53.0875 42.2469 53.2878C42.2469 53.5375 42.3002 53.7481 42.4077 53.9189C42.5143 54.0896 42.6625 54.2375 42.8519 54.3628C43.0412 54.4878 43.2632 54.5939 43.5185 54.6814C43.7736 54.7689 44.0452 54.8543 44.3336 54.9375C44.6543 55.0295 44.9732 55.1356 45.2903 55.2564C45.6068 55.3771 45.8931 55.5335 46.1481 55.7253C46.4032 55.917 46.6091 56.1564 46.7654 56.4439C46.9217 56.7314 47 57.0875 47 57.5128C47 57.896 46.9322 58.242 46.7964 58.55C46.6606 58.8585 46.4673 59.1189 46.2162 59.3311C45.9651 59.5439 45.6604 59.7085 45.3026 59.825C44.9446 59.9415 44.5432 60 44.0988 60C43.8106 60 43.5227 59.9707 43.2346 59.9125Z" fill="white"/>
<path d="M48 51H48.9756V54.8957H53.0244V51H54V60H53.0244V55.8729H48.9756V60H48V51Z" fill="white"/>
<path d="M57.2537 57.0231C57.4044 57.445 57.6103 57.8024 57.8714 58.095C58.1324 58.3873 58.4403 58.615 58.7951 58.778C59.1498 58.9407 59.5353 59.0223 59.9509 59.0223H60.0488C60.4647 59.0223 60.8502 58.9407 61.2049 58.778C61.5597 58.615 61.8676 58.3873 62.1284 58.095C62.3892 57.8024 62.595 57.445 62.7463 57.0231C62.8972 56.6012 62.9727 56.1353 62.9727 55.6253V55.3746C62.9727 54.8567 62.8972 54.3887 62.7463 53.971C62.595 53.5531 62.3892 53.1979 62.1284 52.9056C61.8676 52.613 61.5597 52.385 61.2049 52.2223C60.8502 52.0593 60.4647 51.9777 60.0488 51.9777H59.9509C59.5353 51.9777 59.1498 52.0593 58.7951 52.2223C58.4403 52.385 58.1324 52.613 57.8714 52.9056C57.6103 53.1979 57.4044 53.5531 57.2537 53.971C57.1028 54.3887 57.0276 54.8567 57.0276 55.3746V55.6253C57.0276 56.1353 57.1028 56.6012 57.2537 57.0231ZM56 55.3746C56 54.706 56.0979 54.1046 56.2936 53.5696C56.489 53.0352 56.7621 52.5754 57.1129 52.1908C57.4638 51.8065 57.8794 51.5121 58.3607 51.307C58.8419 51.1027 59.3679 51 59.9387 51H60.061C60.6318 51 61.1578 51.1027 61.6393 51.307C62.1203 51.5121 62.5362 51.8065 62.8871 52.1908C63.2374 52.5754 63.5107 53.0352 63.7064 53.5696C63.9021 54.1046 64 54.706 64 55.3746V55.6253C64 56.2854 63.9021 56.885 63.7064 57.4242C63.5107 57.963 63.2374 58.4251 62.8871 58.8092C62.5362 59.1938 62.1203 59.4882 61.6393 59.693C61.1578 59.8976 60.6318 60 60.061 60H59.9387C59.3679 60 58.8419 59.8976 58.3607 59.693C57.8794 59.4882 57.4638 59.1938 57.1129 58.8092C56.7621 58.4251 56.489 57.963 56.2936 57.4242C56.0979 56.885 56 56.2854 56 55.6253V55.3746Z" fill="white"/>
<path d="M68.3094 55.7186C68.5859 55.7186 68.8325 55.68 69.0496 55.6029C69.2661 55.5257 69.4491 55.4125 69.5987 55.2623C69.748 55.1124 69.8622 54.928 69.9407 54.7094C70.0192 54.4909 70.0583 54.2359 70.0583 53.9446V53.7388C70.0583 53.456 70.0192 53.2032 69.9407 52.98C69.8622 52.7573 69.748 52.5732 69.5987 52.4274C69.4491 52.2816 69.2661 52.17 69.0496 52.0929C68.8325 52.016 68.5859 51.9771 68.3094 51.9771H66.8969V55.7186H68.3094ZM66 51H68.3094C68.713 51 69.0791 51.0624 69.4081 51.1866C69.7368 51.311 70.0192 51.4886 70.2544 51.7203C70.49 51.9514 70.673 52.2365 70.8039 52.5751C70.9346 52.9138 71 53.2973 71 53.726V53.9317C71 54.3601 70.9366 54.7458 70.8094 55.0886C70.6823 55.4316 70.5029 55.721 70.2715 55.9566C70.0397 56.1924 69.7592 56.3743 69.4305 56.5029C69.1016 56.6314 68.7354 56.6957 68.3318 56.6957H66.8969V60H66V51Z" fill="white"/>
</g>
</g>
<defs>
<clipPath id="clip0_3558_11345">
<rect width="65" height="9" fill="white" transform="translate(6 51)"/>
</clipPath>
</defs>
</svg>