<svg width="32" height="32" viewBox="0 0 32 32" fill="none" xmlns="http://www.w3.org/2000/svg">
<path d="M11.9565 29.825C10.5383 30.7412 8.84839 31.1406 7.17081 30.9559C5.49326 30.771 3.93038 30.0134 2.74501 28.8102L1.7087 27.7953C1.25438 27.3298 1 26.7049 1 26.054C1 25.4032 1.25438 24.778 1.7087 24.3127L6.1072 19.9535C6.56802 19.5 7.18826 19.2458 7.83437 19.2458C8.48045 19.2458 9.10071 19.5 9.56151 19.9535C10.0262 20.4086 10.6503 20.6633 11.3002 20.6633C11.9501 20.6633 12.5742 20.4086 13.0389 19.9535L19.9475 13.0343C20.178 12.8068 20.361 12.5357 20.4859 12.2368C20.6108 11.9379 20.6751 11.617 20.6751 11.293C20.6751 10.9689 20.6108 10.6481 20.4859 10.3491C20.361 10.0502 20.178 9.77908 19.9475 9.5516C19.4946 9.0901 19.2409 8.46888 19.2409 7.82181C19.2409 7.1747 19.4946 6.55351 19.9475 6.09198L24.3229 1.70979C24.7877 1.25477 25.4117 1 26.0615 1C26.7116 1 27.3356 1.25477 27.8004 1.70979L28.8137 2.74769C30.0148 3.93488 30.7713 5.50017 30.9559 7.1803C31.1405 8.86045 30.7418 10.553 29.8268 11.9733C25.0598 19.0096 18.9942 25.0687 11.9565 29.825Z" stroke="white" stroke-linecap="round" stroke-linejoin="round"/>
</svg>
